<svg version="1.1" xmlns="http://www.w3.org/2000/svg" viewBox="-265.2 -1033.2 2074.4 1340.4"><desc>Created with Snap</desc><defs></defs><g><rect x="-265.2" y="-1033.2" width="2074.4" height="1340.4" fill="#0ead69" style=""></rect><g><g transform="matrix(0.5,0,0,-0.5,0,0)"><path d="M957 337L904 512L1173 1421L1622 1421L1622 1362Q1598 1350 1574 1343Q1550 1337 1531 1328Q1489 1306 1489 1253L1489 184Q1489 122 1532 98Q1551 87 1576 79Q1601 71 1629 59L1629 0L1106 0L1106 59Q1130 71 1153 79Q1177 87 1196 98Q1239 123 1239 184L1239 1278L1235 1278L957 337ZM224 1224L338 1181L338 213Q338 135 384 103Q405 89 431 80Q458 72 485 59L485 0L84 0L84 59Q108 71 133 78Q158 86 178 100Q224 131 224 211L224 1224ZM739 0L342 1257Q131 1338 84 1362L84 1421L535 1421L918 206L857 0L739 0ZM2396 543L2426 451L2122 451L2147 543L2396 543ZM2168 1165L2228 1003L1993 301Q1962 212 1963 167Q1964 123 1977 109Q1990 95 2011 89Q2032 83 2059 79Q2086 75 2114 61L2114 0L1679 0L1679 61Q1700 73 1723 80Q1746 87 1767 96Q1816 118 1830 162L2168 1165ZM2268 1106L2203 1267Q2149 1286 2130 1305Q2132 1326 2135 1344Q2139 1363 2142 1381Q2146 1400 2150 1412Q2340 1452 2370 1452Q2391 1435 2409 1389L2848 178Q2870 118 2914 96Q2934 86 2956 79Q2979 73 3004 61L3004 0L2463 0L2463 61Q2486 72 2511 76Q2536 81 2557 86Q2603 97 2603 131Q2603 161 2555 293Q2507 425 2470 528Q2367 817 2268 1106Z" fill="#292929" style=""></path></g></g></g></svg>